<mxfile host="app.diagrams.net" modified="2022-01-11T08:27:32.663Z" agent="5.0 (Windows NT 10.0; Win64; x64) AppleWebKit/537.36 (KHTML, like Gecko) Chrome/90.0.4430.212 Safari/537.36" etag="1gQLpgqqv_bZZvTpz-VE" version="16.2.2" type="github">
  <diagram id="dkBk7fBYtChry3igKEyx" name="Page-1">
    <mxGraphModel dx="1422" dy="800" grid="1" gridSize="10" guides="1" tooltips="1" connect="1" arrows="1" fold="1" page="1" pageScale="1" pageWidth="827" pageHeight="1169" math="0" shadow="0">
      <root>
        <mxCell id="0" />
        <mxCell id="1" parent="0" />
        <mxCell id="d-ATXAiqCZRwMQbicWxe-3" value="智慧社区/智慧校园" style="shape=cylinder3;whiteSpace=wrap;html=1;boundedLbl=1;backgroundOutline=1;size=15;fillColor=#d5e8d4;strokeColor=#82b366;" parent="1" vertex="1">
          <mxGeometry x="160" y="200" width="140" height="120" as="geometry" />
        </mxCell>
        <mxCell id="d-ATXAiqCZRwMQbicWxe-4" value="智慧停车场" style="shape=cylinder3;whiteSpace=wrap;html=1;boundedLbl=1;backgroundOutline=1;size=15;fillColor=#dae8fc;strokeColor=#6c8ebf;" parent="1" vertex="1">
          <mxGeometry x="560" y="200" width="130" height="120" as="geometry" />
        </mxCell>
        <mxCell id="d-ATXAiqCZRwMQbicWxe-7" value="提供接口" style="swimlane;fontStyle=0;childLayout=stackLayout;horizontal=1;startSize=30;horizontalStack=0;resizeParent=1;resizeParentMax=0;resizeLast=0;collapsible=1;marginBottom=0;" parent="1" vertex="1">
          <mxGeometry x="160" y="360" width="150" height="210" as="geometry">
            <mxRectangle x="160" y="360" width="80" height="30" as="alternateBounds" />
          </mxGeometry>
        </mxCell>
        <mxCell id="d-ATXAiqCZRwMQbicWxe-8" value="停车场新增/修改" style="text;strokeColor=default;fillColor=none;align=left;verticalAlign=middle;spacingLeft=4;spacingRight=4;overflow=hidden;points=[[0,0.5],[1,0.5]];portConstraint=eastwest;rotatable=0;" parent="d-ATXAiqCZRwMQbicWxe-7" vertex="1">
          <mxGeometry y="30" width="150" height="30" as="geometry" />
        </mxCell>
        <mxCell id="d-ATXAiqCZRwMQbicWxe-9" value="车辆白名单新增/修改/删除" style="text;strokeColor=default;fillColor=none;align=left;verticalAlign=middle;spacingLeft=4;spacingRight=4;overflow=hidden;points=[[0,0.5],[1,0.5]];portConstraint=eastwest;rotatable=0;" parent="d-ATXAiqCZRwMQbicWxe-7" vertex="1">
          <mxGeometry y="60" width="150" height="30" as="geometry" />
        </mxCell>
        <mxCell id="d-ATXAiqCZRwMQbicWxe-10" value="同步停车场/车辆白名单" style="text;strokeColor=none;fillColor=none;align=left;verticalAlign=middle;spacingLeft=4;spacingRight=4;overflow=hidden;points=[[0,0.5],[1,0.5]];portConstraint=eastwest;rotatable=0;" parent="d-ATXAiqCZRwMQbicWxe-7" vertex="1">
          <mxGeometry y="90" width="150" height="30" as="geometry" />
        </mxCell>
        <mxCell id="d-ATXAiqCZRwMQbicWxe-41" value="" style="group;strokeColor=default;" parent="d-ATXAiqCZRwMQbicWxe-7" vertex="1" connectable="0">
          <mxGeometry y="120" width="150" height="60" as="geometry" />
        </mxCell>
        <mxCell id="d-ATXAiqCZRwMQbicWxe-36" value="查询车辆白名单(增量)" style="text;strokeColor=none;fillColor=none;align=left;verticalAlign=middle;spacingLeft=4;spacingRight=4;overflow=hidden;points=[[0,0.5],[1,0.5]];portConstraint=eastwest;rotatable=0;" parent="d-ATXAiqCZRwMQbicWxe-41" vertex="1">
          <mxGeometry width="150" height="30" as="geometry" />
        </mxCell>
        <mxCell id="d-ATXAiqCZRwMQbicWxe-37" value="查询车辆白名单(全量)" style="text;strokeColor=none;fillColor=none;align=left;verticalAlign=middle;spacingLeft=4;spacingRight=4;overflow=hidden;points=[[0,0.5],[1,0.5]];portConstraint=eastwest;rotatable=0;" parent="d-ATXAiqCZRwMQbicWxe-41" vertex="1">
          <mxGeometry y="30" width="150" height="30" as="geometry" />
        </mxCell>
        <mxCell id="d-ATXAiqCZRwMQbicWxe-58" value="新增过车记录" style="text;strokeColor=none;fillColor=none;align=left;verticalAlign=middle;spacingLeft=4;spacingRight=4;overflow=hidden;points=[[0,0.5],[1,0.5]];portConstraint=eastwest;rotatable=0;" parent="d-ATXAiqCZRwMQbicWxe-7" vertex="1">
          <mxGeometry y="180" width="150" height="30" as="geometry" />
        </mxCell>
        <mxCell id="d-ATXAiqCZRwMQbicWxe-11" value="消费接口" style="swimlane;fontStyle=0;childLayout=stackLayout;horizontal=1;startSize=30;horizontalStack=0;resizeParent=1;resizeParentMax=0;resizeLast=0;collapsible=1;marginBottom=0;" parent="1" vertex="1">
          <mxGeometry x="560" y="360" width="150" height="210" as="geometry">
            <mxRectangle x="560" y="360" width="80" height="30" as="alternateBounds" />
          </mxGeometry>
        </mxCell>
        <mxCell id="d-ATXAiqCZRwMQbicWxe-12" value="停车场新增/修改" style="text;strokeColor=default;fillColor=none;align=left;verticalAlign=middle;spacingLeft=4;spacingRight=4;overflow=hidden;points=[[0,0.5],[1,0.5]];portConstraint=eastwest;rotatable=0;" parent="d-ATXAiqCZRwMQbicWxe-11" vertex="1">
          <mxGeometry y="30" width="150" height="30" as="geometry" />
        </mxCell>
        <mxCell id="d-ATXAiqCZRwMQbicWxe-13" value="车辆白名单新增/修改/删除" style="text;strokeColor=default;fillColor=none;align=left;verticalAlign=middle;spacingLeft=4;spacingRight=4;overflow=hidden;points=[[0,0.5],[1,0.5]];portConstraint=eastwest;rotatable=0;" parent="d-ATXAiqCZRwMQbicWxe-11" vertex="1">
          <mxGeometry y="60" width="150" height="30" as="geometry" />
        </mxCell>
        <mxCell id="d-ATXAiqCZRwMQbicWxe-14" value="修改社区接口url" style="text;strokeColor=default;fillColor=none;align=left;verticalAlign=middle;spacingLeft=4;spacingRight=4;overflow=hidden;points=[[0,0.5],[1,0.5]];portConstraint=eastwest;rotatable=0;labelBackgroundColor=none;" parent="d-ATXAiqCZRwMQbicWxe-11" vertex="1">
          <mxGeometry y="90" width="150" height="30" as="geometry" />
        </mxCell>
        <mxCell id="d-ATXAiqCZRwMQbicWxe-38" value="同步车辆白名单数据" style="text;strokeColor=default;fillColor=none;align=left;verticalAlign=middle;spacingLeft=4;spacingRight=4;overflow=hidden;points=[[0,0.5],[1,0.5]];portConstraint=eastwest;rotatable=0;" parent="d-ATXAiqCZRwMQbicWxe-11" vertex="1">
          <mxGeometry y="120" width="150" height="60" as="geometry" />
        </mxCell>
        <mxCell id="d-ATXAiqCZRwMQbicWxe-59" value="新增过车记录" style="text;strokeColor=default;fillColor=none;align=left;verticalAlign=middle;spacingLeft=4;spacingRight=4;overflow=hidden;points=[[0,0.5],[1,0.5]];portConstraint=eastwest;rotatable=0;labelBackgroundColor=none;" parent="d-ATXAiqCZRwMQbicWxe-11" vertex="1">
          <mxGeometry y="180" width="150" height="30" as="geometry" />
        </mxCell>
        <mxCell id="d-ATXAiqCZRwMQbicWxe-16" style="edgeStyle=orthogonalEdgeStyle;rounded=0;orthogonalLoop=1;jettySize=auto;html=1;exitX=0;exitY=0.5;exitDx=0;exitDy=0;startArrow=none;" parent="1" source="d-ATXAiqCZRwMQbicWxe-20" target="d-ATXAiqCZRwMQbicWxe-8" edge="1">
          <mxGeometry relative="1" as="geometry" />
        </mxCell>
        <mxCell id="d-ATXAiqCZRwMQbicWxe-17" style="edgeStyle=orthogonalEdgeStyle;rounded=0;orthogonalLoop=1;jettySize=auto;html=1;exitX=0;exitY=0.5;exitDx=0;exitDy=0;startArrow=none;" parent="1" source="d-ATXAiqCZRwMQbicWxe-21" target="d-ATXAiqCZRwMQbicWxe-9" edge="1">
          <mxGeometry relative="1" as="geometry" />
        </mxCell>
        <mxCell id="d-ATXAiqCZRwMQbicWxe-19" style="edgeStyle=orthogonalEdgeStyle;rounded=0;orthogonalLoop=1;jettySize=auto;html=1;exitX=0;exitY=0.5;exitDx=0;exitDy=0;entryX=1;entryY=0.5;entryDx=0;entryDy=0;startArrow=none;" parent="1" source="d-ATXAiqCZRwMQbicWxe-64" target="d-ATXAiqCZRwMQbicWxe-10" edge="1">
          <mxGeometry relative="1" as="geometry" />
        </mxCell>
        <mxCell id="d-ATXAiqCZRwMQbicWxe-21" value="同步" style="text;html=1;align=center;verticalAlign=middle;resizable=0;points=[];autosize=1;strokeColor=none;fillColor=none;" parent="1" vertex="1">
          <mxGeometry x="430" y="425" width="40" height="20" as="geometry" />
        </mxCell>
        <mxCell id="d-ATXAiqCZRwMQbicWxe-22" value="" style="edgeStyle=orthogonalEdgeStyle;rounded=0;orthogonalLoop=1;jettySize=auto;html=1;exitX=0;exitY=0.5;exitDx=0;exitDy=0;endArrow=none;" parent="1" source="d-ATXAiqCZRwMQbicWxe-13" target="d-ATXAiqCZRwMQbicWxe-21" edge="1">
          <mxGeometry relative="1" as="geometry">
            <mxPoint x="560" y="435" as="sourcePoint" />
            <mxPoint x="330" y="435" as="targetPoint" />
          </mxGeometry>
        </mxCell>
        <mxCell id="d-ATXAiqCZRwMQbicWxe-20" value="同步" style="text;html=1;align=center;verticalAlign=middle;resizable=0;points=[];autosize=1;strokeColor=none;fillColor=none;" parent="1" vertex="1">
          <mxGeometry x="430" y="395" width="40" height="20" as="geometry" />
        </mxCell>
        <mxCell id="d-ATXAiqCZRwMQbicWxe-23" value="" style="edgeStyle=orthogonalEdgeStyle;rounded=0;orthogonalLoop=1;jettySize=auto;html=1;exitX=0;exitY=0.5;exitDx=0;exitDy=0;endArrow=none;" parent="1" source="d-ATXAiqCZRwMQbicWxe-12" target="d-ATXAiqCZRwMQbicWxe-20" edge="1">
          <mxGeometry relative="1" as="geometry">
            <mxPoint x="560" y="405" as="sourcePoint" />
            <mxPoint x="330" y="405" as="targetPoint" />
          </mxGeometry>
        </mxCell>
        <mxCell id="d-ATXAiqCZRwMQbicWxe-24" value="同步" style="text;html=1;align=center;verticalAlign=middle;resizable=0;points=[];autosize=1;strokeColor=none;fillColor=none;" parent="1" vertex="1">
          <mxGeometry x="430" y="455" width="40" height="20" as="geometry" />
        </mxCell>
        <mxCell id="d-ATXAiqCZRwMQbicWxe-25" value="" style="edgeStyle=orthogonalEdgeStyle;rounded=0;orthogonalLoop=1;jettySize=auto;html=1;exitX=0;exitY=0.5;exitDx=0;exitDy=0;entryX=1;entryY=0.5;entryDx=0;entryDy=0;endArrow=none;" parent="1" source="d-ATXAiqCZRwMQbicWxe-14" target="d-ATXAiqCZRwMQbicWxe-24" edge="1">
          <mxGeometry relative="1" as="geometry">
            <mxPoint x="560" y="465" as="sourcePoint" />
            <mxPoint x="330" y="465" as="targetPoint" />
          </mxGeometry>
        </mxCell>
        <mxCell id="d-ATXAiqCZRwMQbicWxe-45" style="edgeStyle=orthogonalEdgeStyle;rounded=0;orthogonalLoop=1;jettySize=auto;html=1;exitX=0;exitY=0.5;exitDx=0;exitDy=0;startArrow=none;" parent="1" source="d-ATXAiqCZRwMQbicWxe-44" edge="1">
          <mxGeometry relative="1" as="geometry">
            <mxPoint x="320" y="510" as="targetPoint" />
          </mxGeometry>
        </mxCell>
        <mxCell id="d-ATXAiqCZRwMQbicWxe-44" value="异步轮询" style="text;html=1;align=center;verticalAlign=middle;resizable=0;points=[];autosize=1;strokeColor=none;fillColor=none;" parent="1" vertex="1">
          <mxGeometry x="414" y="500" width="60" height="20" as="geometry" />
        </mxCell>
        <mxCell id="d-ATXAiqCZRwMQbicWxe-46" value="" style="edgeStyle=orthogonalEdgeStyle;rounded=0;orthogonalLoop=1;jettySize=auto;html=1;exitX=0;exitY=0.5;exitDx=0;exitDy=0;endArrow=none;" parent="1" source="d-ATXAiqCZRwMQbicWxe-38" target="d-ATXAiqCZRwMQbicWxe-44" edge="1">
          <mxGeometry relative="1" as="geometry">
            <mxPoint x="320" y="510" as="targetPoint" />
            <mxPoint x="560" y="510" as="sourcePoint" />
          </mxGeometry>
        </mxCell>
        <mxCell id="d-ATXAiqCZRwMQbicWxe-48" value="每分钟请求一次" style="text;html=1;align=center;verticalAlign=middle;resizable=0;points=[];autosize=1;strokeColor=#b85450;fillColor=#f8cecc;" parent="1" vertex="1">
          <mxGeometry x="320" y="480" width="100" height="20" as="geometry" />
        </mxCell>
        <mxCell id="d-ATXAiqCZRwMQbicWxe-49" value="每天请求一次" style="text;html=1;align=center;verticalAlign=middle;resizable=0;points=[];autosize=1;strokeColor=#b85450;fillColor=#f8cecc;" parent="1" vertex="1">
          <mxGeometry x="320" y="520" width="90" height="20" as="geometry" />
        </mxCell>
        <mxCell id="d-ATXAiqCZRwMQbicWxe-60" style="edgeStyle=orthogonalEdgeStyle;rounded=0;orthogonalLoop=1;jettySize=auto;html=1;exitX=0;exitY=0.5;exitDx=0;exitDy=0;fontColor=#FF0000;startArrow=none;" parent="1" source="d-ATXAiqCZRwMQbicWxe-61" target="d-ATXAiqCZRwMQbicWxe-58" edge="1">
          <mxGeometry relative="1" as="geometry" />
        </mxCell>
        <mxCell id="d-ATXAiqCZRwMQbicWxe-61" value="异步" style="text;html=1;align=center;verticalAlign=middle;resizable=0;points=[];autosize=1;strokeColor=none;fillColor=none;" parent="1" vertex="1">
          <mxGeometry x="430" y="545" width="40" height="20" as="geometry" />
        </mxCell>
        <mxCell id="d-ATXAiqCZRwMQbicWxe-62" value="" style="edgeStyle=orthogonalEdgeStyle;rounded=0;orthogonalLoop=1;jettySize=auto;html=1;exitX=0;exitY=0.5;exitDx=0;exitDy=0;fontColor=#FF0000;endArrow=none;" parent="1" source="d-ATXAiqCZRwMQbicWxe-59" target="d-ATXAiqCZRwMQbicWxe-61" edge="1">
          <mxGeometry relative="1" as="geometry">
            <mxPoint x="560" y="555" as="sourcePoint" />
            <mxPoint x="310" y="555" as="targetPoint" />
          </mxGeometry>
        </mxCell>
        <mxCell id="d-ATXAiqCZRwMQbicWxe-64" value="以停车场数据为主" style="text;html=1;align=center;verticalAlign=middle;resizable=0;points=[];autosize=1;strokeColor=#b85450;fillColor=#f8cecc;" parent="1" vertex="1">
          <mxGeometry x="320" y="455" width="110" height="20" as="geometry" />
        </mxCell>
        <mxCell id="d-ATXAiqCZRwMQbicWxe-65" value="" style="edgeStyle=orthogonalEdgeStyle;rounded=0;orthogonalLoop=1;jettySize=auto;html=1;exitX=0;exitY=0.5;exitDx=0;exitDy=0;entryX=1;entryY=0.5;entryDx=0;entryDy=0;startArrow=none;endArrow=none;" parent="1" source="d-ATXAiqCZRwMQbicWxe-24" target="d-ATXAiqCZRwMQbicWxe-64" edge="1">
          <mxGeometry relative="1" as="geometry">
            <mxPoint x="430" y="465" as="sourcePoint" />
            <mxPoint x="310" y="465" as="targetPoint" />
          </mxGeometry>
        </mxCell>
        <mxCell id="d-ATXAiqCZRwMQbicWxe-67" value="以社区数据为主" style="text;html=1;align=center;verticalAlign=middle;resizable=0;points=[];autosize=1;strokeColor=#b85450;fillColor=#f8cecc;" parent="1" vertex="1">
          <mxGeometry x="364" y="675" width="100" height="20" as="geometry" />
        </mxCell>
        <mxCell id="d-ATXAiqCZRwMQbicWxe-70" value="操作" style="swimlane;fontStyle=0;childLayout=stackLayout;horizontal=1;startSize=30;horizontalStack=0;resizeParent=1;resizeParentMax=0;resizeLast=0;collapsible=1;marginBottom=0;labelBackgroundColor=none;fontColor=#000000;strokeColor=default;" parent="1" vertex="1">
          <mxGeometry x="160" y="640" width="140" height="60" as="geometry" />
        </mxCell>
        <mxCell id="d-ATXAiqCZRwMQbicWxe-71" value="白名单新增/修改/删除" style="text;strokeColor=none;fillColor=none;align=left;verticalAlign=middle;spacingLeft=4;spacingRight=4;overflow=hidden;points=[[0,0.5],[1,0.5]];portConstraint=eastwest;rotatable=0;labelBackgroundColor=none;fontColor=#000000;" parent="d-ATXAiqCZRwMQbicWxe-70" vertex="1">
          <mxGeometry y="30" width="140" height="30" as="geometry" />
        </mxCell>
        <mxCell id="d-ATXAiqCZRwMQbicWxe-74" value="操作" style="swimlane;fontStyle=0;childLayout=stackLayout;horizontal=1;startSize=30;horizontalStack=0;resizeParent=1;resizeParentMax=0;resizeLast=0;collapsible=1;marginBottom=0;labelBackgroundColor=none;fontColor=#000000;strokeColor=default;" parent="1" vertex="1">
          <mxGeometry x="560" y="640" width="140" height="90" as="geometry" />
        </mxCell>
        <mxCell id="d-ATXAiqCZRwMQbicWxe-75" value="白名单新增/修改/删除" style="text;strokeColor=default;fillColor=none;align=left;verticalAlign=middle;spacingLeft=4;spacingRight=4;overflow=hidden;points=[[0,0.5],[1,0.5]];portConstraint=eastwest;rotatable=0;labelBackgroundColor=none;fontColor=#000000;" parent="d-ATXAiqCZRwMQbicWxe-74" vertex="1">
          <mxGeometry y="30" width="140" height="30" as="geometry" />
        </mxCell>
        <mxCell id="d-ATXAiqCZRwMQbicWxe-76" value="停车场新增/修改" style="text;strokeColor=none;fillColor=none;align=left;verticalAlign=middle;spacingLeft=4;spacingRight=4;overflow=hidden;points=[[0,0.5],[1,0.5]];portConstraint=eastwest;rotatable=0;labelBackgroundColor=none;fontColor=#000000;" parent="d-ATXAiqCZRwMQbicWxe-74" vertex="1">
          <mxGeometry y="60" width="140" height="30" as="geometry" />
        </mxCell>
        <mxCell id="d-ATXAiqCZRwMQbicWxe-79" style="edgeStyle=orthogonalEdgeStyle;rounded=0;orthogonalLoop=1;jettySize=auto;html=1;exitX=0;exitY=0.5;exitDx=0;exitDy=0;entryX=0.013;entryY=0.267;entryDx=0;entryDy=0;entryPerimeter=0;fontColor=#000000;" parent="1" source="d-ATXAiqCZRwMQbicWxe-71" target="d-ATXAiqCZRwMQbicWxe-37" edge="1">
          <mxGeometry relative="1" as="geometry">
            <Array as="points">
              <mxPoint x="120" y="685" />
              <mxPoint x="120" y="518" />
            </Array>
          </mxGeometry>
        </mxCell>
        <mxCell id="d-ATXAiqCZRwMQbicWxe-80" style="edgeStyle=orthogonalEdgeStyle;rounded=0;orthogonalLoop=1;jettySize=auto;html=1;exitX=1;exitY=0.5;exitDx=0;exitDy=0;entryX=1;entryY=0.5;entryDx=0;entryDy=0;fontColor=#000000;" parent="1" source="d-ATXAiqCZRwMQbicWxe-75" target="d-ATXAiqCZRwMQbicWxe-13" edge="1">
          <mxGeometry relative="1" as="geometry">
            <Array as="points">
              <mxPoint x="740" y="685" />
              <mxPoint x="740" y="435" />
            </Array>
          </mxGeometry>
        </mxCell>
        <mxCell id="d-ATXAiqCZRwMQbicWxe-81" style="edgeStyle=orthogonalEdgeStyle;rounded=0;orthogonalLoop=1;jettySize=auto;html=1;exitX=1;exitY=0.5;exitDx=0;exitDy=0;entryX=1;entryY=0.5;entryDx=0;entryDy=0;fontColor=#000000;" parent="1" source="d-ATXAiqCZRwMQbicWxe-76" target="d-ATXAiqCZRwMQbicWxe-12" edge="1">
          <mxGeometry relative="1" as="geometry">
            <Array as="points">
              <mxPoint x="760" y="715" />
              <mxPoint x="760" y="405" />
            </Array>
          </mxGeometry>
        </mxCell>
      </root>
    </mxGraphModel>
  </diagram>
</mxfile>
